<svg xmlns="http://www.w3.org/2000/svg" shape-rendering="geometricPrecision"
    text-rendering="geometricPrecision" image-rendering="optimizeQuality" fill-rule="evenodd"
    clip-rule="evenodd" viewBox="0 0 512 444.62">
    <path
        d="M472.72 416.47 435.77 308c-1.61-4.74-4.32-9.19-9.18-9.19h-20.68l13.86-28.15h6.82c11.58 0 20.32 4.92 26.92 12.49 4.29 4.92 7.05 10.47 8.88 15.83L512 444.62H0l44.38-144.86c2.03-6.5 5.46-13.26 10.69-18.49h.11c6.47-6.44 14.74-10.61 25.22-10.61h13.74l15.09 28.15H80.4c-4.87 0-7.77 4.58-9.18 9.19L37.98 416.47h434.74zM197.44 123.7l33.82-37.9c7.17-8.03 19.41 2.89 12.24 10.93l-24.06 26.97h73.74l-24.07-26.97c-7.23-8.1 5.02-19.02 12.24-10.93l33.82 37.9c8.6 0 17.2-.01 25.8 0 2.78 0 5.06 2.27 5.06 5.05v14.26c0 2.77-2.28 5.05-5.06 5.05h-10.74l-5.52 69.64c-.15 1.92-1.59 3.51-3.51 3.51H190.8c-1.92 0-3.36-1.58-3.51-3.51l-5.53-69.64h-10.73c-2.78 0-5.06-2.28-5.06-5.05v-14.26c0-2.78 2.28-5.05 5.06-5.05 8.8-.01 17.61 0 26.41 0zm82.33 27.09h15.99v46.2h-15.99v-46.2zm-31.09 0h15.98v46.2h-15.98v-46.2zm-31.09 0h15.98v46.2h-15.98v-46.2zm60.1 232.16c-10.17 7.21-23.91 7.62-34.45.94l-.08-.08c-15.89-10.12-30.56-21.26-43.86-33.11-13.77-12.21-26.17-25.36-37.07-39.08-14.75-18.49-26.83-38.06-36.07-57.99-9.43-20.39-15.92-41.33-19.24-62.03-3.47-21.5-3.53-42.6-.01-62.48 6.53-36.83 25.27-69.23 54.59-92.53 15.02-11.96 31.22-21.16 47.96-27.33 33.62-12.4 70.62-12.6 103.94.95 16.04 6.65 31.33 16.23 45.27 28.95 27.04 24.55 42.68 58.35 47.4 94.32 3.01 22.78 1.83 46.88-3.15 71-7.51 36.47-23.21 71.69-44.95 102.49-21.4 30.3-48.86 56.63-80.28 75.98zm-13.54-22.13c-2.46 1.79-5.8 2.03-8.53.28-29.52-18.79-54.35-41.36-73.82-65.85-26.89-33.74-43.84-71.15-49.63-107.17-8.04-49.79 5.13-98.78 45.27-130.71 50.28-40.08 115.37-42.79 163.96 1.54 39.25 35.62 46.79 90.83 36.46 140.83-13.4 65.19-56.46 126.32-113.71 161.08z" />
</svg>