<!DOCTYPE svg PUBLIC "-//W3C//DTD SVG 1.1//EN" "http://www.w3.org/Graphics/SVG/1.1/DTD/svg11.dtd">
<!-- Uploaded to: SVG Repo, www.svgrepo.com, Transformed by: SVG Repo Mixer Tools -->
<svg fill="#FF7643" height="800px" width="800px" version="1.1" id="Layer_1" xmlns="http://www.w3.org/2000/svg" xmlns:xlink="http://www.w3.org/1999/xlink" viewBox="0 0 366.785 366.785" xml:space="preserve">
<g id="SVGRepo_bgCarrier" stroke-width="0"/>
<g id="SVGRepo_tracerCarrier" stroke-linecap="round" stroke-linejoin="round"/>
<g id="SVGRepo_iconCarrier"> <g> <g> <path d="M337.536,178.956h-3.85V77.648c0-15.401-12.53-27.932-27.932-27.932H61.032c-15.401,0-27.932,12.53-27.932,27.932v101.307 h-3.85c-16.129,0-29.25,13.121-29.25,29.25v79.613c0,16.129,13.121,29.25,29.25,29.25h308.285c16.129,0,29.25-13.121,29.25-29.25 v-79.613C366.786,192.076,353.665,178.956,337.536,178.956z M48.101,77.648c0-7.131,5.801-12.932,12.932-12.932h244.723 c7.131,0,12.932,5.801,12.932,12.932v1.696l-135.293,86.55L48.101,79.345V77.648z M85.446,205.025l65.642-41.991l28.264,18.081 c1.232,0.789,2.637,1.183,4.042,1.183c1.405,0,2.81-0.394,4.042-1.183l28.264-18.081l65.642,41.991 c-0.113,1.045-0.176,2.105-0.176,3.18v19.348H85.622v-19.348C85.622,207.131,85.56,206.07,85.446,205.025z M229.616,154.131 l89.07-56.979v81.804h-8.271c-9.611,0-18.152,4.66-23.488,11.839L229.616,154.131z M48.101,97.151l89.07,56.979l-57.312,36.663 c-5.336-7.179-13.877-11.839-23.488-11.839h-8.27V97.151z M351.786,287.818c0,7.857-6.393,14.25-14.25,14.25H29.251 c-7.857,0-14.25-6.393-14.25-14.25v-79.613c0-7.857,6.393-14.25,14.25-14.25h27.12c7.858,0,14.251,6.393,14.251,14.25v26.848 c0,4.143,3.357,7.5,7.5,7.5h210.543c4.143,0,7.5-3.357,7.5-7.5v-26.848c0-7.857,6.393-14.25,14.251-14.25h27.12 c7.857,0,14.25,6.393,14.25,14.25V287.818z"/> </g> </g> </g>
</svg>