<!--?xml version="1.0" encoding="utf-8"?-->
<!-- Generator: Adobe Illustrator 18.1.1, SVG Export Plug-In . SVG Version: 6.00 Build 0)  -->

<svg version="1.1" id="_x31_0" xmlns="http://www.w3.org/2000/svg" xmlns:xlink="http://www.w3.org/1999/xlink" x="0px" y="0px" viewBox="0 0 512 512" style="width: 256px; height: 256px; opacity: 1;" xml:space="preserve">
<style type="text/css">
	.st0{fill:#374149;}
</style>
<g>
	<polygon class="st0" points="86.239,227.41 86.239,227.57 100.826,227.57 100.826,212.202 100.963,198.95 109.456,215.698 
		119.125,215.698 123.664,206.678 127.676,199.025 127.676,227.32 127.672,227.41 127.676,227.41 127.676,227.57 142.259,227.57 
		142.259,166.066 128.43,166.066 119.718,184.2 114.234,195.392 100.065,166.066 86.239,166.066 86.239,227.222 86.239,227.41 	" style="fill: rgb(255, 118, 67);"></polygon>
	<polygon class="st0" points="156.424,227.41 156.424,227.57 198.032,227.57 198.032,214.218 171.011,214.218 171.011,203.248 
		194.02,203.248 194.02,189.895 171.011,189.895 171.011,179.422 198.032,179.422 198.032,166.066 156.424,166.066 156.424,227.222 
		156.424,227.41 	" style="fill: rgb(255, 118, 67);"></polygon>
	<polygon class="st0" points="211.646,227.41 211.646,227.57 226.23,227.57 226.23,210.115 226.358,195.818 246.852,227.57 
		259.478,227.57 259.478,166.066 244.895,166.066 244.895,183.375 244.762,197.743 224.273,166.066 211.646,166.066 
		211.646,227.222 211.646,227.41 	" style="fill: rgb(255, 118, 67);"></polygon>
	<path class="st0" d="M279.948,222.03c2.078,1.902,4.539,3.402,7.314,4.454c2.762,1.047,5.774,1.578,8.958,1.578
		c3.183,0,6.195-0.531,8.958-1.578c2.774-1.051,5.234-2.551,7.309-4.45c2.094-1.91,3.766-4.25,4.969-6.958
		c1.207-2.703,1.821-5.762,1.821-9.086v-39.925h-14.501v39.514c0,2.977-0.746,5.2-2.29,6.786c-1.531,1.578-3.582,2.344-6.266,2.344
		c-2.68,0-4.711-0.766-6.212-2.336c-1.519-1.582-2.258-3.805-2.258-6.794v-39.514h-14.587v39.925c0,3.324,0.614,6.383,1.821,9.086
		C276.186,217.776,277.854,220.116,279.948,222.03z" style="fill: rgb(255, 118, 67);"></path>
	<path class="st0" d="M357.485,73.602H48.03c-20.076,0-36.409,16.333-36.409,36.405v365.588C11.621,495.667,27.954,512,48.03,512
		h309.455c20.08,0,36.409-16.333,36.409-36.405V110.007C393.894,89.935,377.565,73.602,357.485,73.602z M35.892,110.007
		c0-6.692,5.442-12.134,12.138-12.134h309.455c6.696,0,12.138,5.442,12.138,12.134v365.588c0,6.692-5.442,12.134-12.138,12.134
		H48.03c-6.696,0-12.138-5.442-12.138-12.134V110.007z" style="fill: rgb(255, 118, 67);"></path>
	<polygon class="st0" points="98.088,278.39 98.088,292.598 98.084,292.641 98.088,292.641 98.088,292.801 307.426,292.801 
		307.426,278.39 	" style="fill: rgb(255, 118, 67);"></polygon>
	<polygon class="st0" points="98.088,345.516 98.088,359.724 98.084,359.766 98.088,359.766 98.088,359.927 307.426,359.927 
		307.426,345.516 	" style="fill: rgb(255, 118, 67);"></polygon>
	<polygon class="st0" points="98.088,412.642 98.088,426.85 98.084,426.893 98.088,426.893 98.088,427.053 307.426,427.053 
		307.426,412.642 	" style="fill: rgb(255, 118, 67);"></polygon>
	<path class="st0" d="M469.883,50.874L164.581,0.456c-6.298-1.042-12.423-0.234-18.048,1.778c-0.309,0.11-0.622,0.203-0.93,0.321
		c-1.594,0.621-3.118,1.355-4.606,2.191c-0.453,0.25-0.894,0.504-1.336,0.778c-1.375,0.851-2.683,1.774-3.938,2.797
		c-0.406,0.332-0.793,0.684-1.184,1.035c-1.254,1.114-2.434,2.282-3.523,3.563c-0.219,0.258-0.414,0.535-0.625,0.801
		c-3.806,4.726-6.602,10.352-7.665,16.739l-2.211,13.38l-0.39,2.218h0.027l-0.027,0.161h24.591l1.985-11.853
		c0.117-0.695,0.32-1.351,0.542-1.996c0.07-0.191,0.13-0.383,0.207-0.57c1.477-3.626,4.61-6.294,8.337-7.219
		c0.054-0.016,0.114-0.02,0.168-0.031c1.485-0.348,3.055-0.434,4.653-0.184l132.341,21.854l108.914,17.946l64.118,10.614
		c6.574,1.098,11.028,7.399,10.001,13.978l-54.664,330.852v55.965c0,1.441-0.066,2.809-0.137,4.18
		c9.864-5.071,17.263-14.525,19.181-26.307l59.524-360.716C503.174,72.93,489.682,54.159,469.883,50.874z" style="fill: rgb(255, 118, 67);"></path>
</g>
</svg>
